<svg width="157" height="56" viewBox="0 0 157 56" fill="none" xmlns="http://www.w3.org/2000/svg">
<path d="M23.308 46.424C23.5853 46.736 23.724 47.0307 23.724 47.308C23.724 47.5507 23.6027 47.776 23.36 47.984C23.152 48.1573 22.8573 48.296 22.476 48.4C22.0947 48.4693 21.6787 48.504 21.228 48.504C20.5347 48.504 19.824 48.3653 19.096 48.088C18.368 47.776 17.7613 47.256 17.276 46.528C16.8947 45.28 16.652 44.0147 16.548 42.732C16.444 41.4147 16.3573 40.1493 16.288 38.936C16.2533 38.0693 16.2013 37.272 16.132 36.544C16.0973 35.7813 16.0107 35.1227 15.872 34.568C15.7333 34.0133 15.5253 33.5973 15.248 33.32C15.0053 33.008 14.6587 32.8693 14.208 32.904C13.896 32.9387 13.4107 33.372 12.752 34.204C12.0933 35.0013 11.3827 36.024 10.62 37.272C9.89201 38.4853 9.18134 39.82 8.48801 41.276C7.79467 42.732 7.25734 44.1013 6.87601 45.384C6.87601 46.7707 6.94534 47.6027 7.08401 47.88C7.46534 48.7813 7.37867 49.596 6.82401 50.324C6.26934 51.0173 5.43734 51.364 4.32801 51.364C3.94667 51.364 3.58267 51.3293 3.23601 51.26C2.88934 51.1907 2.52534 51.0693 2.14401 50.896C1.83201 50.7573 1.55467 50.428 1.31201 49.908C1.10401 49.3533 0.930674 48.6773 0.792007 47.88C0.65334 47.048 0.54934 46.1293 0.480007 45.124C0.410674 44.084 0.376007 42.992 0.376007 41.848C0.376007 40.3227 0.428007 38.7627 0.532007 37.168C0.636007 35.5387 0.774674 34.0133 0.948007 32.592C1.12134 31.1707 1.31201 29.9053 1.52001 28.796C1.72801 27.6867 1.91867 26.872 2.09201 26.352C1.81467 26.248 1.69334 26.1267 1.72801 25.988C1.79734 25.8147 1.97067 25.6587 2.24801 25.52C2.52534 25.3467 2.90667 25.208 3.39201 25.104C3.87734 25 4.43201 24.948 5.05601 24.948C5.78401 24.948 6.42534 25.0693 6.98001 25.312C7.53467 25.52 7.77734 25.936 7.70801 26.56C7.70801 26.664 7.69067 26.872 7.65601 27.184C7.62134 27.4613 7.58667 27.808 7.55201 28.224C7.48267 29.3333 7.39601 30.7547 7.29201 32.488C7.18801 34.1867 7.10134 35.9547 7.03201 37.792C7.41334 36.8213 7.84667 35.8507 8.33201 34.88C8.85201 33.8747 9.42401 32.9733 10.048 32.176C10.672 31.344 11.348 30.668 12.076 30.148C12.804 29.628 13.584 29.316 14.416 29.212C15.9413 29.212 17.172 29.4373 18.108 29.888C19.0787 30.3387 19.824 30.928 20.344 31.656C20.8987 32.384 21.2973 33.2333 21.54 34.204C21.7827 35.14 21.9387 36.1453 22.008 37.22C22.632 35.4867 23.3947 33.684 24.296 31.812C25.1973 29.94 26.168 28.224 27.208 26.664C28.248 25.104 29.34 23.8213 30.484 22.816C31.628 21.776 32.7547 21.256 33.864 21.256C35.008 21.256 35.944 21.4813 36.672 21.932C37.4 22.348 37.972 22.9547 38.388 23.752C38.8387 24.5147 39.1507 25.4333 39.324 26.508C39.4973 27.5827 39.584 28.744 39.584 29.992C39.584 31.5867 39.48 33.2507 39.272 34.984C39.0987 36.7173 38.908 38.416 38.7 40.08C38.492 41.5707 38.3013 42.992 38.128 44.344C37.9893 45.696 37.92 46.892 37.92 47.932C37.92 49.0413 38.0067 49.9253 38.18 50.584C38.388 51.208 38.7867 51.5547 39.376 51.624C39.7227 51.624 40.104 51.3467 40.52 50.792C40.9707 50.2027 41.404 49.4227 41.82 48.452C42.2707 47.4813 42.7213 46.372 43.172 45.124C43.6573 43.876 44.108 42.6107 44.524 41.328C44.9747 40.0107 45.3907 38.728 45.772 37.48C46.1533 36.1973 46.5 35.0533 46.812 34.048C47.0893 33.112 47.332 32.332 47.54 31.708C47.748 31.0493 47.9387 30.5813 48.112 30.304C48.32 30.0613 48.632 29.9053 49.048 29.836C49.4987 29.7667 49.932 29.784 50.348 29.888C50.764 29.992 51.1107 30.1827 51.388 30.46C51.6653 30.7373 51.752 31.1013 51.648 31.552C49.0827 40.1147 46.448 46.372 43.744 50.324C41.0747 54.276 38.492 55.9227 35.996 55.264C35.268 55.056 34.6613 54.7093 34.176 54.224C33.6907 53.7387 33.3093 53.132 33.032 52.404C32.7547 51.676 32.5467 50.844 32.408 49.908C32.304 48.972 32.252 47.984 32.252 46.944C32.252 45.488 32.3387 43.9453 32.512 42.316C32.6853 40.652 32.8587 39.0227 33.032 37.428C33.2053 36.0413 33.3613 34.7067 33.5 33.424C33.6387 32.1413 33.708 30.9973 33.708 29.992C33.708 28.8827 33.604 27.9987 33.396 27.34C33.2227 26.6813 32.8933 26.3347 32.408 26.3C32.0267 26.2653 31.5413 26.5427 30.952 27.132C30.3627 27.6867 29.7213 28.4667 29.028 29.472C28.3693 30.4427 27.6933 31.5867 27 32.904C26.3067 34.1867 25.6653 35.5213 25.076 36.908C24.4867 38.2947 23.984 39.6813 23.568 41.068C23.152 42.42 22.8747 43.6853 22.736 44.864C22.736 44.8987 22.7187 44.916 22.684 44.916C22.684 44.916 22.684 44.9333 22.684 44.968C22.7533 45.2453 22.8227 45.5053 22.892 45.748C22.996 45.956 23.1173 46.164 23.256 46.372C23.256 46.4067 23.2733 46.424 23.308 46.424Z" fill="url(#paint0_linear)"/>
<path d="M57.6833 21.724C59.1047 21.724 60.318 21.88 61.3233 22.192C62.3287 22.504 63.1433 22.9027 63.7673 23.388C64.426 23.8387 64.9287 24.3587 65.2753 24.948C65.6567 25.5027 65.934 26.0747 66.1073 26.664C66.2807 27.2187 66.3673 27.756 66.3673 28.276C66.402 28.7613 66.402 29.16 66.3673 29.472C66.0207 31.5173 65.3967 33.1987 64.4953 34.516C63.6287 35.7987 62.6233 36.804 61.4793 37.532C60.37 38.26 59.1913 38.7627 57.9433 39.04C56.6953 39.3173 55.534 39.456 54.4593 39.456C53.4887 39.456 52.6913 39.404 52.0673 39.3V39.612C52.0673 40.756 52.1367 41.848 52.2753 42.888C52.4487 43.928 52.6913 44.8467 53.0033 45.644C53.35 46.4067 53.766 47.0307 54.2513 47.516C54.7713 47.9667 55.3607 48.192 56.0193 48.192C57.4407 48.1227 58.758 47.7933 59.9713 47.204C61.2193 46.6147 62.346 45.8693 63.3513 44.968C64.3913 44.0667 65.3273 43.0613 66.1593 41.952C66.9913 40.8427 67.7193 39.7333 68.3433 38.624C68.9673 37.5147 69.5047 36.4573 69.9553 35.452C70.406 34.4467 70.77 33.6147 71.0473 32.956L71.5153 31.864C71.6887 31.6213 71.966 31.4307 72.3473 31.292C72.7287 31.1533 73.0927 31.084 73.4393 31.084C73.8207 31.084 74.1327 31.188 74.3753 31.396C74.618 31.604 74.722 31.9507 74.6873 32.436C74.5833 33.0253 74.3233 33.9093 73.9073 35.088C73.4913 36.232 72.902 37.5147 72.1393 38.936C71.3767 40.3573 70.458 41.8133 69.3833 43.304C68.3433 44.76 67.1473 46.112 65.7953 47.36C64.478 48.5733 63.0047 49.5787 61.3753 50.376C59.7807 51.1387 58.0647 51.5027 56.2273 51.468C54.5287 51.4333 53.0727 51.1733 51.8593 50.688C50.646 50.2027 49.6233 49.596 48.7913 48.868C47.9593 48.14 47.2833 47.3253 46.7633 46.424C46.278 45.5227 45.914 44.6733 45.6713 43.876C45.394 43.044 45.2207 42.316 45.1513 41.692C45.0473 41.0333 44.9953 40.5653 44.9953 40.288V39.872C44.9953 39.352 45.03 38.5547 45.0993 37.48C45.134 36.3707 45.2727 35.14 45.5153 33.788C45.758 32.436 46.1393 31.0493 46.6593 29.628C47.1793 28.172 47.9073 26.8547 48.8433 25.676C49.7793 24.4973 50.958 23.544 52.3793 22.816C53.8353 22.0533 55.6033 21.6893 57.6833 21.724ZM58.9313 24.48C57.9953 24.6533 57.1287 25.1387 56.3313 25.936C55.534 26.7333 54.8407 27.756 54.2513 29.004C53.662 30.2173 53.1767 31.5693 52.7953 33.06C52.4487 34.5507 52.206 36.0587 52.0673 37.584C52.2753 37.584 52.466 37.6013 52.6393 37.636C52.8473 37.636 53.09 37.636 53.3673 37.636C54.0953 37.636 54.8927 37.532 55.7593 37.324C56.626 37.0813 57.458 36.6653 58.2553 36.076C59.0527 35.4867 59.7287 34.6893 60.2833 33.684C60.838 32.644 61.1673 31.3093 61.2713 29.68C61.306 29.16 61.2713 28.6053 61.1673 28.016C61.098 27.392 60.9593 26.8373 60.7513 26.352C60.5433 25.832 60.2833 25.3987 59.9713 25.052C59.694 24.7053 59.3473 24.5147 58.9313 24.48Z" fill="url(#paint1_linear)"/>
<path d="M82.6722 21.724C84.0936 21.724 85.3069 21.88 86.3122 22.192C87.3176 22.504 88.1322 22.9027 88.7562 23.388C89.4149 23.8387 89.9176 24.3587 90.2642 24.948C90.6456 25.5027 90.9229 26.0747 91.0962 26.664C91.2696 27.2187 91.3562 27.756 91.3562 28.276C91.3909 28.7613 91.3909 29.16 91.3562 29.472C91.0096 31.5173 90.3856 33.1987 89.4842 34.516C88.6176 35.7987 87.6122 36.804 86.4682 37.532C85.3589 38.26 84.1802 38.7627 82.9322 39.04C81.6842 39.3173 80.5229 39.456 79.4482 39.456C78.4776 39.456 77.6802 39.404 77.0562 39.3V39.612C77.0562 40.756 77.1256 41.848 77.2642 42.888C77.4376 43.928 77.6802 44.8467 77.9922 45.644C78.3389 46.4067 78.7549 47.0307 79.2402 47.516C79.7602 47.9667 80.3496 48.192 81.0082 48.192C82.4296 48.1227 83.7469 47.7933 84.9602 47.204C86.2082 46.6147 87.3349 45.8693 88.3402 44.968C89.3802 44.0667 90.3162 43.0613 91.1482 41.952C91.9802 40.8427 92.7082 39.7333 93.3322 38.624C93.9562 37.5147 94.4936 36.4573 94.9442 35.452C95.3949 34.4467 95.7589 33.6147 96.0362 32.956L96.5042 31.864C96.6776 31.6213 96.9549 31.4307 97.3362 31.292C97.7176 31.1533 98.0816 31.084 98.4282 31.084C98.8096 31.084 99.1216 31.188 99.3642 31.396C99.6069 31.604 99.7109 31.9507 99.6762 32.436C99.5722 33.0253 99.3122 33.9093 98.8962 35.088C98.4802 36.232 97.8909 37.5147 97.1282 38.936C96.3656 40.3573 95.4469 41.8133 94.3722 43.304C93.3322 44.76 92.1362 46.112 90.7842 47.36C89.4669 48.5733 87.9936 49.5787 86.3642 50.376C84.7696 51.1387 83.0536 51.5027 81.2162 51.468C79.5176 51.4333 78.0616 51.1733 76.8482 50.688C75.6349 50.2027 74.6122 49.596 73.7802 48.868C72.9482 48.14 72.2722 47.3253 71.7522 46.424C71.2669 45.5227 70.9029 44.6733 70.6602 43.876C70.3829 43.044 70.2096 42.316 70.1402 41.692C70.0362 41.0333 69.9842 40.5653 69.9842 40.288V39.872C69.9842 39.352 70.0189 38.5547 70.0882 37.48C70.1229 36.3707 70.2616 35.14 70.5042 33.788C70.7469 32.436 71.1282 31.0493 71.6482 29.628C72.1682 28.172 72.8962 26.8547 73.8322 25.676C74.7682 24.4973 75.9469 23.544 77.3682 22.816C78.8242 22.0533 80.5922 21.6893 82.6722 21.724ZM83.9202 24.48C82.9842 24.6533 82.1176 25.1387 81.3202 25.936C80.5229 26.7333 79.8296 27.756 79.2402 29.004C78.6509 30.2173 78.1656 31.5693 77.7842 33.06C77.4376 34.5507 77.1949 36.0587 77.0562 37.584C77.2642 37.584 77.4549 37.6013 77.6282 37.636C77.8362 37.636 78.0789 37.636 78.3562 37.636C79.0842 37.636 79.8816 37.532 80.7482 37.324C81.6149 37.0813 82.4469 36.6653 83.2442 36.076C84.0416 35.4867 84.7176 34.6893 85.2722 33.684C85.8269 32.644 86.1562 31.3093 86.2602 29.68C86.2949 29.16 86.2602 28.6053 86.1562 28.016C86.0869 27.392 85.9482 26.8373 85.7402 26.352C85.5322 25.832 85.2722 25.3987 84.9602 25.052C84.6829 24.7053 84.3362 24.5147 83.9202 24.48Z" fill="url(#paint2_linear)"/>
<path d="M83.7411 9.296C84.3998 9.46933 85.2491 9.59066 86.2891 9.66C87.2945 9.69466 88.4558 9.712 89.7731 9.712C91.9225 9.712 94.2971 9.66 96.8971 9.556L97.7291 3.16C97.7638 2.91733 97.7985 2.72666 97.8331 2.588C97.8678 2.41466 97.8851 2.34533 97.8851 2.38C97.8851 2.20666 97.9718 2.016 98.1451 1.808C98.3185 1.6 98.5265 1.40933 98.7691 1.236C99.0465 1.028 99.3585 0.871997 99.7051 0.767998C100.052 0.629331 100.398 0.559998 100.745 0.559998C101.23 0.559998 101.664 0.68133 102.045 0.923996C102.426 1.16666 102.686 1.63466 102.825 2.328C102.929 3.056 102.981 4.18266 102.981 5.708C102.981 6.228 102.981 6.78266 102.981 7.372C102.981 7.96133 102.964 8.58533 102.929 9.244C103.9 9.17466 104.853 9.12266 105.789 9.088C106.725 9.01866 107.661 8.94933 108.597 8.88C109.984 8.776 111.353 8.68933 112.705 8.62C114.092 8.516 115.409 8.42933 116.657 8.36C117.905 8.256 119.066 8.18666 120.141 8.152C121.25 8.11733 122.221 8.1 123.053 8.1C124.613 8.1 125.74 8.204 126.433 8.412C126.849 8.58533 127.126 8.828 127.265 9.14C127.438 9.41733 127.473 9.69466 127.369 9.972C127.3 10.2493 127.092 10.492 126.745 10.7C126.398 10.8733 125.93 10.908 125.341 10.804C124.821 10.7347 124.232 10.6827 123.573 10.648C122.914 10.5787 122.221 10.544 121.493 10.544C119.413 10.544 116.969 10.6653 114.161 10.908C111.353 11.116 108.424 11.3413 105.373 11.584L102.773 11.844L102.409 19.852C102.236 22.9373 102.062 26.0573 101.889 29.212C101.716 32.332 101.629 35.192 101.629 37.792C101.629 39.1093 101.646 40.3227 101.681 41.432C101.716 42.5413 101.785 43.4947 101.889 44.292C101.993 45.0547 102.114 45.6613 102.253 46.112C102.426 46.528 102.617 46.7187 102.825 46.684C103.31 46.6147 103.83 46.0427 104.385 44.968C104.974 43.8587 105.546 42.576 106.101 41.12C106.69 39.664 107.228 38.1733 107.713 36.648C108.198 35.088 108.597 33.8227 108.909 32.852C108.978 32.6093 109.048 32.3667 109.117 32.124C109.221 31.8467 109.308 31.5867 109.377 31.344C109.481 31.1013 109.724 30.9453 110.105 30.876C110.486 30.8067 110.885 30.8067 111.301 30.876C111.717 30.9453 112.064 31.0667 112.341 31.24C112.618 31.4133 112.705 31.604 112.601 31.812C112.462 32.02 112.341 32.4013 112.237 32.956C112.098 33.6147 111.89 34.4813 111.613 35.556C111.37 36.596 111.041 37.7053 110.625 38.884C110.244 40.0627 109.776 41.2587 109.221 42.472C108.666 43.6507 108.008 44.7253 107.245 45.696C106.517 46.632 105.668 47.3947 104.697 47.984C103.726 48.5733 102.652 48.8507 101.473 48.816C100.294 48.7813 99.3065 48.2787 98.5091 47.308C97.7465 46.3373 97.1225 45.0547 96.6371 43.46C96.1865 41.8307 95.8745 39.9413 95.7011 37.792C95.4931 35.6427 95.3891 33.3893 95.3891 31.032C95.3891 27.8773 95.5278 24.6533 95.8051 21.36C96.0478 18.0667 96.3078 15.0507 96.5851 12.312C93.6038 12.52 90.8998 12.624 88.4731 12.624C87.3638 12.624 86.3585 12.6067 85.4571 12.572C84.5558 12.5373 83.7758 12.4333 83.1171 12.26H83.2211C82.3198 12.0867 81.6265 11.8093 81.1411 11.428C80.6558 11.012 80.4131 10.6133 80.4131 10.232C80.4131 9.816 80.6905 9.504 81.2451 9.296C81.7651 9.088 82.5971 9.088 83.7411 9.296Z" fill="url(#paint3_linear)"/>
<path d="M115.04 3.784C115.734 3.056 116.479 2.51866 117.276 2.172C118.108 1.82533 118.94 1.652 119.772 1.652C120.535 1.652 121.28 1.808 122.008 2.12C122.736 2.39733 123.378 2.796 123.932 3.316C124.522 3.836 124.972 4.47733 125.284 5.24C125.631 5.968 125.804 6.76533 125.804 7.632C125.77 11.4453 125.388 14.9813 124.66 18.24C123.932 21.464 123.031 24.3933 121.956 27.028C120.916 29.6627 119.807 31.968 118.628 33.944C117.45 35.8853 116.427 37.4627 115.56 38.676C115.699 40.444 115.89 41.952 116.132 43.2C116.41 44.4133 116.67 45.4013 116.912 46.164C117.19 46.9267 117.432 47.4813 117.64 47.828C117.848 48.1747 117.987 48.348 118.056 48.348C118.542 48.244 119.166 47.7413 119.928 46.84C120.726 45.9387 121.558 44.8467 122.424 43.564C123.291 42.2813 124.158 40.912 125.024 39.456C125.926 37.9653 126.723 36.5787 127.416 35.296C128.144 33.9787 128.734 32.8693 129.184 31.968C129.67 31.0667 129.93 30.5467 129.964 30.408C129.999 30.1307 130.172 29.9053 130.484 29.732C130.796 29.5587 131.126 29.472 131.472 29.472C131.854 29.472 132.2 29.5587 132.512 29.732C132.859 29.9053 133.102 30.2 133.24 30.616C133.206 31.1013 132.963 31.8813 132.512 32.956C132.096 33.996 131.542 35.1747 130.848 36.492C130.19 37.8093 129.444 39.196 128.612 40.652C127.815 42.0733 127.035 43.408 126.272 44.656C125.544 45.8693 124.886 46.9267 124.296 47.828C123.707 48.7293 123.291 49.3013 123.048 49.544C122.32 50.2373 121.506 50.7573 120.604 51.104C119.703 51.4853 118.784 51.676 117.848 51.676C117.051 51.676 116.288 51.5373 115.56 51.26C114.867 50.9827 114.278 50.584 113.792 50.064C112.856 48.9893 112.042 47.7587 111.348 46.372C110.655 44.9507 110.083 43.4427 109.632 41.848C109.216 40.2187 108.887 38.5373 108.644 36.804C108.436 35.036 108.332 33.2507 108.332 31.448C108.332 28.4667 108.54 25.4853 108.956 22.504C109.407 19.5227 109.962 16.784 110.62 14.288C111.279 11.7573 112.007 9.57333 112.804 7.736C113.602 5.864 114.347 4.54666 115.04 3.784ZM115.404 34.88C116.34 33.0427 117.12 31.1707 117.744 29.264C118.403 27.3227 118.94 25.4333 119.356 23.596C119.807 21.724 120.154 19.9387 120.396 18.24C120.639 16.5067 120.812 14.9467 120.916 13.56C121.055 12.1387 121.142 10.9253 121.176 9.92C121.211 8.88 121.246 8.11733 121.28 7.632V7.164C121.315 5.11866 121.09 4.096 120.604 4.096C120.327 4.096 120.015 4.42533 119.668 5.084C119.356 5.708 119.062 6.57466 118.784 7.684C118.23 10.2147 117.744 12.6933 117.328 15.12C116.912 17.512 116.548 19.8 116.236 21.984C115.959 24.168 115.751 26.2133 115.612 28.12C115.474 29.992 115.404 31.656 115.404 33.112V34.88Z" fill="url(#paint4_linear)"/>
<path d="M129.029 28.016C129.307 27.8427 129.601 27.7387 129.913 27.704C130.225 27.6347 130.52 27.6 130.797 27.6C130.901 27.1147 131.075 26.508 131.317 25.78C131.595 25.0173 132.028 24.3067 132.617 23.648C133.207 22.9547 134.021 22.3827 135.061 21.932C136.101 21.4467 137.453 21.204 139.117 21.204C140.816 21.2387 142.22 21.6027 143.329 22.296C144.439 22.9547 145.305 23.7867 145.929 24.792C146.588 25.7973 147.021 26.8893 147.229 28.068C147.472 29.212 147.576 30.2693 147.541 31.24V31.812L147.437 33.632C148.616 33.1467 149.743 32.5227 150.817 31.76C151.927 30.9627 152.845 29.9573 153.573 28.744H153.521C153.695 28.4667 153.972 28.2067 154.353 27.964C154.735 27.7213 155.081 27.6 155.393 27.6C155.775 27.6 156.017 27.7387 156.121 28.016C156.26 28.2587 156.173 28.7267 155.861 29.42C155.376 30.46 154.787 31.396 154.093 32.228C153.435 33.0253 152.707 33.7533 151.909 34.412C151.147 35.036 150.349 35.5907 149.517 36.076C148.685 36.5613 147.853 36.96 147.021 37.272C146.779 38.4507 146.415 39.6467 145.929 40.86C145.444 42.0733 144.785 43.1653 143.953 44.136C143.121 45.1067 142.064 45.904 140.781 46.528C139.499 47.1173 137.939 47.3947 136.101 47.36C134.16 47.3253 132.548 47.0133 131.265 46.424C130.017 45.8347 129.012 45.0893 128.249 44.188C127.521 43.252 127.019 42.1947 126.741 41.016C126.429 39.8373 126.273 38.6413 126.273 37.428C126.273 36.3187 126.377 35.244 126.585 34.204C126.793 33.1293 127.036 32.1587 127.313 31.292C127.591 30.4253 127.885 29.7147 128.197 29.16C128.544 28.5707 128.821 28.1893 129.029 28.016ZM141.197 34.828C141.717 34.8973 142.411 34.8453 143.277 34.672C143.381 34.0133 143.451 33.4587 143.485 33.008C143.555 32.5227 143.589 32.2107 143.589 32.072C143.624 30.9627 143.572 29.8707 143.433 28.796C143.329 27.7213 143.087 26.768 142.705 25.936C142.359 25.104 141.856 24.4627 141.197 24.012C140.573 23.5267 139.759 23.3187 138.753 23.388C138.199 23.4227 137.679 23.648 137.193 24.064C136.708 24.4453 136.292 24.9133 135.945 25.468C135.633 25.988 135.408 26.5427 135.269 27.132C135.131 27.7213 135.113 28.2413 135.217 28.692L135.425 29.576C135.495 30.0613 135.599 30.616 135.737 31.24C135.911 31.8293 136.188 32.384 136.569 32.904C136.985 33.424 137.557 33.8747 138.285 34.256C139.013 34.6027 139.984 34.7933 141.197 34.828ZM141.405 38.416C139.325 38.3467 137.627 38.0347 136.309 37.48C134.992 36.8907 133.935 36.1973 133.137 35.4V36.284C133.137 37.1853 133.189 38.0867 133.293 38.988C133.432 39.8547 133.657 40.652 133.969 41.38C134.316 42.0733 134.767 42.6453 135.321 43.096C135.876 43.512 136.587 43.7373 137.453 43.772C138.077 43.772 138.649 43.6333 139.169 43.356C139.689 43.044 140.14 42.6453 140.521 42.16C140.937 41.64 141.301 41.068 141.613 40.444C141.925 39.7853 142.203 39.1093 142.445 38.416C142.237 38.416 142.047 38.4333 141.873 38.468C141.735 38.468 141.579 38.4507 141.405 38.416Z" fill="url(#paint5_linear)"/>
<defs>
<linearGradient id="paint0_linear" x1="119.943" y1="0.559998" x2="91.3351" y2="74.6906" gradientUnits="userSpaceOnUse">
<stop stop-color="#396AE9"/>
<stop offset="1" stop-color="#E939C2"/>
</linearGradient>
<linearGradient id="paint1_linear" x1="119.943" y1="0.559998" x2="91.3351" y2="74.6906" gradientUnits="userSpaceOnUse">
<stop stop-color="#396AE9"/>
<stop offset="1" stop-color="#E939C2"/>
</linearGradient>
<linearGradient id="paint2_linear" x1="119.943" y1="0.559998" x2="91.3351" y2="74.6906" gradientUnits="userSpaceOnUse">
<stop stop-color="#396AE9"/>
<stop offset="1" stop-color="#E939C2"/>
</linearGradient>
<linearGradient id="paint3_linear" x1="119.943" y1="0.559998" x2="91.3351" y2="74.6906" gradientUnits="userSpaceOnUse">
<stop stop-color="#396AE9"/>
<stop offset="1" stop-color="#E939C2"/>
</linearGradient>
<linearGradient id="paint4_linear" x1="119.943" y1="0.559998" x2="91.3351" y2="74.6906" gradientUnits="userSpaceOnUse">
<stop stop-color="#396AE9"/>
<stop offset="1" stop-color="#E939C2"/>
</linearGradient>
<linearGradient id="paint5_linear" x1="119.943" y1="0.559998" x2="91.3351" y2="74.6906" gradientUnits="userSpaceOnUse">
<stop stop-color="#396AE9"/>
<stop offset="1" stop-color="#E939C2"/>
</linearGradient>
</defs>
</svg>
