<svg width="103" height="103" viewBox="0 0 103 103" fill="none" xmlns="http://www.w3.org/2000/svg">
<g clip-path="url(#clip0)">
<path d="M0 49.3542C0 26.0884 0 14.4555 7.22775 7.22775C14.4555 0 26.0884 0 49.3542 0H53.6458C76.9116 0 88.5446 0 95.7722 7.22775C103 14.4555 103 26.0884 103 49.3542V53.6458C103 76.9116 103 88.5446 95.7722 95.7722C88.5446 103 76.9116 103 53.6458 103H49.3542C26.0884 103 14.4555 103 7.22775 95.7722C0 88.5446 0 76.9116 0 53.6458L0 49.3542Z" fill="#0A79FE"/>
<path fill-rule="evenodd" clip-rule="evenodd" d="M27.8978 32.1875H20.3856C18.2393 32.1875 17.81 33.1978 17.81 34.3114C17.81 36.3008 20.3568 46.1672 29.6683 59.2162C35.876 68.1276 44.622 72.9583 52.5807 72.9583C57.3558 72.9583 57.9465 71.8854 57.9465 70.0374V63.3021C57.9465 61.1562 58.3989 60.7279 59.9108 60.7279C61.0251 60.7279 62.9352 61.285 67.3921 65.5816C72.4856 70.6739 73.3253 72.9583 76.1902 72.9583H83.7023C85.8488 72.9583 86.9219 71.8854 86.3028 69.7681C85.6254 67.6579 83.1935 64.596 79.9666 60.9668C78.2156 58.898 75.5893 56.6702 74.7935 55.556C73.6793 54.1239 73.9976 53.4873 74.7935 52.2143C74.7935 52.2143 83.9459 39.3243 84.901 34.9483C85.3784 33.3568 84.901 32.1875 82.6292 32.1875H75.117C73.207 32.1875 72.3264 33.1978 71.8487 34.3114C71.8487 34.3114 68.0287 43.6209 62.6169 49.6681C60.8659 51.4185 60.07 51.9755 59.1149 51.9755C58.6375 51.9755 57.9463 51.4185 57.9463 49.8273V34.9483C57.9463 33.0385 57.392 32.1875 55.8 32.1875H43.9952C42.8017 32.1875 42.0837 33.0737 42.0837 33.9138C42.0837 35.724 44.7896 36.1416 45.0685 41.2339V52.294C45.0685 54.7187 44.6303 55.1584 43.6754 55.1584C41.1288 55.1584 34.934 45.8073 31.2599 35.1073C30.5399 33.0276 29.8177 32.1875 27.8978 32.1875V32.1875Z" fill="white"/>
</g>
<defs>
<clipPath id="clip0">
<rect width="103" height="103" fill="white"/>
</clipPath>
</defs>
</svg>
